PathFileType	4	(X/Y/Z)	C:\Users\Basilio\Documents\Thesis Gigler\squatting_fais\c3dfiles\040\SJ_pre5\markers_experimental.trc
DataRate	CameraRate	NumFrames	NumMarkers	Units	OrigDataRate	OrigDataStartFrame	OrigNumFrames
200.000000	200.000000	4	62	mm	200.000000	582	1165
Frame#	Time	FHD			LBHD			RBHD			C7			T10			CLAV			LSHO			LUUPA			LMUPA			LDUPA			LLEP			LMEP			LRAD			LUL			LRFIN			RSHO			RUPA1			RMUPA			RDUPA			RLEP			RMEP			RRAD			RUL			RUFIN			LASI			RASI			USACR			LSACR			RSACR			LTHI1			LTHI2			LTHI3			LTHI4			LLFC			LMFC			LTIB1			LTIB2			LTIB3			LTIB4			LLMAL			LMMAL			LHEE			LMT1			LMT2			LMT5			RTHI			RTHI2			RTHI3			RTHI4			RLFC			RMFC			RTIB1			RTIB2			RTIB3			RTIB4			RLMAL			RMMAL			RHEE			RMT1			RMT2			RMT5			*61			
		X1	Y1	Z1	X2	Y2	Z2	X3	Y3	Z3	X4	Y4	Z4	X5	Y5	Z5	X6	Y6	Z6	X7	Y7	Z7	X8	Y8	Z8	X9	Y9	Z9	X10	Y10	Z10	X11	Y11	Z11	X12	Y12	Z12	X13	Y13	Z13	X14	Y14	Z14	X15	Y15	Z15	X16	Y16	Z16	X17	Y17	Z17	X18	Y18	Z18	X19	Y19	Z19	X20	Y20	Z20	X21	Y21	Z21	X22	Y22	Z22	X23	Y23	Z23	X24	Y24	Z24	X25	Y25	Z25	X26	Y26	Z26	X27	Y27	Z27	X28	Y28	Z28	X29	Y29	Z29	X30	Y30	Z30	X31	Y31	Z31	X32	Y32	Z32	X33	Y33	Z33	X34	Y34	Z34	X35	Y35	Z35	X36	Y36	Z36	X37	Y37	Z37	X38	Y38	Z38	X39	Y39	Z39	X40	Y40	Z40	X41	Y41	Z41	X42	Y42	Z42	X43	Y43	Z43	X44	Y44	Z44	X45	Y45	Z45	X46	Y46	Z46	X47	Y47	Z47	X48	Y48	Z48	X49	Y49	Z49	X50	Y50	Z50	X51	Y51	Z51	X52	Y52	Z52	X53	Y53	Z53	X54	Y54	Z54	X55	Y55	Z55	X56	Y56	Z56	X57	Y57	Z57	X58	Y58	Z58	X59	Y59	Z59	X60	Y60	Z60	X61	Y61	Z61	X62	Y62	Z62	

583	2.91	4.284046649932862	1096.722045898438	-889.939147949219	-119.2244644165039	1038.812866210938	-923.2255859375002	-165.101547241211	1001.563293457031	-787.8789672851565	-185.0240478515625	939.4423828125002	-844.4837036132815	-419.3359985351564	747.7481689453126	-842.351745605469	-115.0110931396485	803.7066650390627	-837.512390136719	-94.96656036376955	840.3858642578127	-1008.981872558594	-180.7119140625	739.6871337890626	-1172.022583007813	-209.7182617187501	701.6688232421876	-1160.618774414063	-220.8452148437501	707.2092285156251	-1218.889770507813	-265.7767944335938	682.5695190429689	-1265.791381835938	-309.9281311035157	743.7388305664064	-1265.540649414063	-505.1709899902345	634.6794433593751	-1092.414428710938	-483.6071166992189	564.8734130859376	-1107.1220703125	-468.3768310546876	631.1062011718751	-1033.628051757813	-113.0958786010742	842.217956542969	-668.2416992187501	-224.2370758056641	822.171569824219	-500.8186035156251	-242.3431243896485	775.3229980468752	-496.4088134765626	-267.7185058593751	803.6807250976565	-449.4183044433595	-317.5145568847657	767.8091430664064	-408.0032653808595	-380.0304260253907	817.659851074219	-442.047576904297	-460.8498535156251	627.2541503906251	-613.3050537109376	-444.8447875976564	564.0491333007814	-572.0549926757814	-413.4698181152345	612.1959838867189	-666.3373413085939	-415.3930969238282	556.5852661132814	-947.353454589844	-412.5926513671876	534.0606689453126	-745.7837524414064	-550.1304321289064	655.2587280273439	-840.123229980469	-573.4947509765626	635.5369873046876	-868.8499145507815	-578.2071533203126	635.3673095703126	-814.0922851562502	-392.515594482422	450.9924621582032	-1086.589111328125	-312.8240966796876	474.1333312988282	-1109.434814453125	-298.9991149902344	517.3858642578126	-1096.138793945313	-266.6047363281251	437.0025634765626	-1119.128295898438	-153.5864562988282	425.9561767578126	-1140.680908203125	-127.9913177490235	373.4127197265626	-1018.651306152344	-215.3528137207032	234.0444946289063	-1119.996704101563	-302.1273498535157	253.4927368164063	-1138.4873046875	-271.8246459960938	221.311996459961	-1134.603149414063	-306.6417236328126	149.515121459961	-1109.948364257813	-409.2863159179689	106.1845703125	-1110.203979492188	-357.1353759765626	96.37825012207034	-1038.973266601563	-470.436248779297	51.0009231567383	-1070.3232421875	-249.1145019531251	55.91489410400392	-1100.141235351563	-261.2311706542969	55.58898544311525	-1145.25	-317.4825134277344	34.02228546142579	-1184.247924804688	-374.2287902832032	469.7169189453126	-604.5852661132814	-310.4146423339844	483.9082641601564	-591.6799926757814	-296.3808288574219	512.8340454101564	-602.7105712890626	-249.5913238525391	427.696014404297	-574.3772583007814	-160.7857818603516	398.2514648437501	-557.9807128906251	-127.6626586914063	375.9940490722657	-692.0284423828126	-210.9319763183594	237.9535675048829	-590.2257080078126	-321.1616821289063	231.7807769775391	-588.8292236328126	-287.3212890625001	199.0421752929688	-591.4455566406251	-300.7899475097657	154.111083984375	-624.7517089843751	-413.7019653320314	102.5481109619141	-623.3179931640626	-373.7069702148438	99.25550842285159	-703.6081542968751	-476.2746582031251	52.12404632568361	-682.5723876953126	-259.0639648437501	53.80835342407228	-631.0262451171876	-272.1757812500001	57.2892303466797	-592.9211425781251	-326.0134582519532	34.65437316894532	-551.1909790039064	nan	nan	nan	
584	2.915	5.277523517608643	1097.03515625	-890.017517089844	-119.9271469116211	1039.014892578125	-923.286560058594	-165.0543060302735	1001.338317871094	-787.8311157226565	-184.9366607666016	939.2891235351565	-844.435974121094	-419.8269348144532	747.1559448242189	-842.244323730469	-114.9716415405274	803.2860107421877	-837.4831542968752	-94.90176391601564	840.3345336914065	-1008.92724609375	-180.7630004882813	739.5371093750001	-1172.07177734375	-209.7026977539063	701.4743041992189	-1160.574340820313	-220.8878936767579	707.0220336914064	-1218.8271484375	-265.8703308105469	682.2974243164064	-1265.690063476563	-309.9313354492188	743.5967407226564	-1265.507202148438	-505.3432617187501	634.7855834960939	-1092.342407226563	-483.6375427246095	565.0267944335939	-1106.952880859375	-468.5639648437501	631.1648559570314	-1033.499267578125	-113.034408569336	841.836364746094	-668.1878051757814	-224.1073760986329	822.010925292969	-500.6228332519532	-242.2526397705079	775.1157836914065	-496.3265686035157	-267.6351623535157	803.4937133789065	-449.3254699707032	-317.4103698730469	767.7437133789064	-407.8897094726564	-379.8452453613282	817.7456665039065	-441.9539489746095	-460.8975219726564	627.3511962890626	-613.1394042968751	-444.9951782226564	564.0404663085939	-571.7942504882814	-413.466522216797	612.1424560546876	-666.2459106445314	-415.6812438964845	556.5082397460939	-947.1444091796877	-413.6613769531251	533.8623657226564	-745.5914916992189	-550.6177368164064	656.0989990234376	-839.6784667968752	-575.5316772460939	636.7811279296876	-868.2627563476565	-578.2383422851564	635.2725219726564	-813.902526855469	-392.6840820312501	451.1107788085939	-1086.515991210938	-313.0075988769532	474.2085876464845	-1109.246459960938	-299.1764526367188	517.3562622070314	-1096.043334960938	-266.7907409667969	437.0727844238282	-1119.113891601563	-153.5722351074219	425.4332885742189	-1140.635498046875	-128.1783294677735	373.6380310058594	-1018.627014160156	-216.7450866699219	234.7407531738282	-1119.40380859375	-302.2116394042969	253.4985504150391	-1138.503540039063	-272.0335998535157	220.8625793457032	-1134.73876953125	-306.2924194335938	148.5318298339844	-1110.03076171875	-409.6898803710939	106.519515991211	-1110.240112304688	-357.1033020019532	96.4029235839844	-1038.908447265625	-470.511688232422	51.01412582397462	-1070.392822265625	-249.1326599121094	55.8659019470215	-1100.120361328125	-261.1753234863282	55.63645935058595	-1145.210815429688	-317.4577941894532	34.01396179199219	-1184.263427734375	-374.3285827636719	469.6701049804689	-604.5419921875001	-310.4786376953126	483.9138183593751	-591.7222290039064	-296.4926757812501	512.8624267578126	-602.7173461914064	-249.6823883056641	427.6872863769532	-574.3751220703126	-160.8411865234375	398.3405151367189	-558.0919799804689	-127.7634658813477	376.0718688964844	-692.1951904296876	-210.9724121093751	238.1518249511719	-590.3242797851564	-320.9772338867188	232.3216552734376	-588.8980102539064	-287.0527038574219	199.5065155029297	-591.4310302734376	-300.7553710937501	154.1128082275391	-624.8520507812501	-413.6659240722657	102.5392379760742	-623.3235473632814	-373.7476196289063	99.2786560058594	-703.6516113281251	-476.2329101562501	52.10568237304689	-682.5491333007814	-259.1439514160157	53.75762176513673	-631.1717529296876	-272.1764526367188	57.14033508300783	-592.9644775390626	-326.0126037597657	34.57804870605469	-551.2532958984376	nan	nan	nan	
585	2.92	5.223351955413819	1096.865600585938	-890.0603637695315	-119.8206253051758	1038.768676757813	-923.2791748046877	-164.9368438720703	1000.998229980469	-787.808044433594	-184.9502716064453	939.1135864257815	-844.426696777344	-420.0057373046876	747.1953125000001	-842.0085449218752	-114.9587173461914	803.2103271484377	-837.4539794921877	-94.89656829833986	840.2556152343752	-1008.910278320313	-180.7979583740235	739.4226074218751	-1172.093872070313	-209.7438659667969	701.3748779296876	-1160.580810546875	-221.0689239501954	706.7703857421876	-1218.765258789063	-265.9828186035157	682.1005859375001	-1265.6611328125	-310.0230407714844	743.5665893554689	-1265.434448242188	-505.4724426269532	634.7933959960939	-1092.23974609375	-483.8722229003907	565.1417236328126	-1106.88818359375	-468.6958312988282	631.2214355468751	-1033.352783203125	-112.8990554809571	841.550720214844	-668.2539672851564	-223.8188018798829	821.7413330078127	-500.4541320800782	-242.1878814697266	774.8616943359377	-496.296356201172	-267.4725952148438	803.4038696289065	-449.1271362304689	-317.3248291015626	767.5603637695314	-407.8125915527345	-379.6082153320313	817.8557739257815	-441.7313537597657	-460.9494018554689	627.4252319335939	-612.9710693359376	-445.1595764160157	564.2119750976564	-571.6359252929689	-413.4873046875001	612.1328125000001	-666.1236572265626	-415.8081665039064	556.4891967773439	-947.1030883789065	-413.5779418945314	533.9418945312501	-745.5281982421876	-550.7686157226564	656.0768432617189	-839.5039062500002	-575.2288208007814	636.3154907226564	-868.3493652343752	-578.5047607421876	635.2120361328126	-813.7626953125002	-392.8078002929689	451.1524353027345	-1086.357421875	-313.1612243652344	474.3179321289064	-1109.095825195313	-299.2854003906251	517.4833374023439	-1095.990844726563	-267.0368347167969	437.2620544433595	-1118.940551757813	-153.8091430664063	425.5834960937501	-1140.593627929688	-128.1802368164063	373.7783508300782	-1018.570617675781	-216.8170166015626	234.7617797851563	-1119.283081054688	-302.1861877441407	253.4670104980469	-1138.395263671875	-272.0331115722657	220.9124145507813	-1134.6611328125	-306.5997924804688	149.4194793701172	-1109.941650390625	-409.7326965332032	106.5156936645508	-1110.247436523438	-357.1713562011719	96.42083740234378	-1038.96142578125	-470.2224426269532	50.40163803100587	-1070.381591796875	-249.0536499023438	55.86558914184572	-1100.10009765625	-261.2298583984376	55.64639282226564	-1145.220092773438	-317.4806823730469	33.99692153930665	-1184.255615234375	-374.4303588867188	469.6860656738282	-604.4609985351564	-310.5140380859376	483.911590576172	-591.7368774414064	-296.6095275878907	512.8709106445314	-602.7251586914064	-249.709213256836	427.7006835937501	-574.3907470703126	-160.8623352050782	398.5039367675782	-558.1660766601564	-127.7079010009766	376.2347412109376	-692.3649902343751	-210.9380187988282	238.4214019775391	-590.3660888671876	-321.0646362304688	232.3842010498047	-589.0007934570314	-287.1137390136719	199.4940338134766	-591.5308227539064	-300.7741394042969	154.1898803710938	-624.8899536132814	-413.6612548828126	102.5744094848633	-623.2872314453126	-373.6982421875001	99.24836730957034	-703.6545410156251	-476.2872009277345	52.13676071166994	-682.5606079101564	-259.0888366699219	53.82219314575197	-631.1926269531251	-272.1941833496094	57.24118041992189	-593.0264282226564	-325.9700927734376	34.63962936401368	-551.1712036132814	nan	nan	nan	
586	2.925	5.4107084274292	1096.669311523438	-890.0495605468752	-119.7052459716797	1038.41796875	-923.2813110351565	-165.0018615722657	1000.749206542969	-787.793395996094	-184.8065185546875	939.0474853515627	-844.3167114257815	-419.8899536132814	747.5747680664064	-841.824890136719	-114.9387435913086	802.9796142578127	-837.384704589844	-94.88403320312501	840.111267089844	-1008.924011230469	-180.7364959716797	739.2192382812501	-1172.169311523438	-209.8556671142579	701.1777343750001	-1160.525512695313	-221.1239471435547	706.5951538085939	-1218.807250976563	-266.1296997070313	681.9442138671876	-1265.583984375	-310.1141357421876	743.4827880859376	-1265.351928710938	-505.6648254394532	634.9194335937501	-1092.11962890625	-484.107635498047	565.1412963867189	-1106.745849609375	-468.8014526367189	631.2852172851564	-1033.21630859375	-112.6044464111328	841.2786254882815	-668.3920288085939	-223.5041809082032	821.7912597656252	-500.2088317871095	-242.0342559814454	774.643737792969	-496.201385498047	-267.2217102050782	803.1110839843752	-448.977264404297	-317.4195556640626	767.8988037109376	-407.6933898925782	-379.4342346191407	817.907897949219	-441.5878906250001	-460.9741210937501	627.5336914062501	-612.7915649414064	-445.3085021972657	564.1615600585939	-571.5403442382814	-413.4727783203126	612.1095581054689	-665.9936523437501	-415.7577209472657	556.3526611328126	-947.0906372070315	-413.745574951172	533.9310302734376	-745.3999633789064	-551.0581054687501	656.1704711914064	-839.3109130859377	-575.3595581054689	636.3215942382814	-868.1646118164065	-578.7133789062501	635.2188720703126	-813.6186523437502	-393.0932617187501	451.3176269531251	-1086.24658203125	-313.4070739746094	474.4296264648439	-1109.145874023438	-299.4888610839844	517.5377807617189	-1095.8349609375	-267.2399902343751	437.4280090332032	-1118.8701171875	-154.0285797119141	425.7480773925782	-1140.50048828125	-128.166000366211	373.9152526855469	-1018.568603515625	-215.9593505859376	234.3455200195313	-1119.487060546875	-302.3783874511719	253.583480834961	-1138.422729492188	-272.1569213867188	221.0164794921876	-1134.552612304688	-306.5086669921876	149.1550445556641	-1109.932739257813	-409.728485107422	106.4824829101563	-1110.253662109375	-357.2043762207032	96.40520477294925	-1039.022338867188	-470.4991760253907	50.89996719360353	-1070.402587890625	-249.1356658935547	55.89027023315431	-1100.090209960938	-261.2353820800782	55.62664794921876	-1145.224975585938	-317.4891662597657	33.99938201904298	-1184.244140625	-374.5638427734376	469.722381591797	-604.3862304687501	-310.7004394531251	483.8682556152345	-591.6903686523439	-296.8427124023438	512.8352050781251	-602.6227416992189	-249.7947387695313	427.7864379882814	-574.4894409179689	-160.8841094970703	398.5239257812501	-558.3300781250001	-127.9277801513672	376.2368469238282	-692.4384155273439	-210.9592895507813	238.4026031494141	-590.4365844726564	-321.1026306152344	232.4111480712891	-589.0421142578126	-287.1924133300782	199.646224975586	-591.5679931640626	-300.7592163085938	154.2175598144532	-624.8860473632814	-413.6353759765626	102.5742111206055	-623.2841186523439	-373.7027587890626	99.24707794189456	-703.6456298828126	-476.2527465820314	52.12528610229494	-682.5833740234376	-259.1310729980469	53.82466125488283	-631.2592163085939	-272.2057189941407	57.28962326049806	-592.9934692382814	-326.0321960449219	34.63464736938477	-551.2659301757814	nan	nan	nan	
